<?xml version="1.0" encoding="UTF-8"?>
<!DOCTYPE svg PUBLIC "-//W3C//DTD SVG 1.1//EN" "http://www.w3.org/Graphics/SVG/1.1/DTD/svg11.dtd">
<!-- Creator: CorelDRAW 2019 (64-Bit) -->
<svg xmlns="http://www.w3.org/2000/svg" xml:space="preserve" width="1.62774in" height="0.666661in" version="1.1" style="shape-rendering:geometricPrecision; text-rendering:geometricPrecision; image-rendering:optimizeQuality; fill-rule:evenodd; clip-rule:evenodd"
viewBox="0 0 1623.99 665.13"
 xmlns:xlink="http://www.w3.org/1999/xlink">
 <defs>
  <style type="text/css">
   <![CDATA[
    .fil2 {fill:none}
    .fil0 {fill:#091D36}
    .fil1 {fill:#FFFFFF;fill-rule:nonzero}
    .fil3 {fill:#091D36;fill-rule:nonzero}
   ]]>
  </style>
    <clipPath id="id0">
     <path d="M8.75 665.13l332.62 0c4.82,0 8.75,-3.93 8.75,-8.75l0 -647.62c0,-4.82 -3.94,-8.75 -8.75,-8.75l-332.62 0c-4.82,0 -8.75,3.93 -8.75,8.75l0 647.62c0,4.82 3.94,8.75 8.75,8.75z"/>
    </clipPath>
 </defs>
 <g id="Capa_x0020_1">
  <metadata id="CorelCorpID_0Corel-Layer"/>
  <g id="_2409592913664">
   <path class="fil0" d="M8.75 665.13l332.62 0c4.82,0 8.75,-3.93 8.75,-8.75l0 -647.62c0,-4.82 -3.94,-8.75 -8.75,-8.75l-332.62 0c-4.82,0 -8.75,3.93 -8.75,8.75l0 647.62c0,4.82 3.94,8.75 8.75,8.75z"/>
   <g style="clip-path:url(#id0)">
    <g>
     <path id="1" class="fil1" d="M220.43 146.01l75.81 0 0 254.77c0,23.46 -5.18,44.16 -15.61,62.1 -10.35,17.94 -24.93,31.83 -43.82,41.57 -18.89,9.75 -40.19,14.66 -63.91,14.66 -38.89,0 -69.25,-9.92 -90.99,-29.75 -21.73,-19.84 -32.6,-47.87 -32.6,-84.09l76.33 0c0,18.03 3.79,31.31 11.38,39.93 7.59,8.54 19.49,12.85 35.88,12.85 14.49,0 26.05,-5 34.59,-14.92 8.63,-9.92 12.94,-24.06 12.94,-42.43l0 -254.68z"/>
    </g>
   </g>
   <path class="fil2" d="M8.75 665.13l332.62 0c4.82,0 8.75,-3.93 8.75,-8.75l0 -647.62c0,-4.82 -3.94,-8.75 -8.75,-8.75l-332.62 0c-4.82,0 -8.75,3.93 -8.75,8.75l0 647.62c0,4.82 3.94,8.75 8.75,8.75z"/>
   <path class="fil3" d="M509.19 519.41c-41.01,0 -74.44,-12.61 -100.19,-37.75 -25.76,-25.13 -38.63,-58.65 -38.63,-100.54l0 -7.23c0,-28.05 5.47,-53.18 16.32,-75.32 10.85,-22.14 26.2,-39.25 46.13,-51.15 19.93,-12 42.6,-17.99 68.09,-17.99 38.28,0 68.35,12.08 90.32,36.16 21.96,24.16 32.9,58.38 32.9,102.66l0 30.52 -177.98 0c2.38,18.26 9.7,32.81 21.78,43.83 12.17,11.03 27.52,16.49 46.13,16.49 28.84,0 51.24,-10.41 67.47,-31.13l36.69 41.1c-11.2,15.79 -26.37,28.22 -45.51,37.04 -19.05,8.91 -40.3,13.32 -63.5,13.32zm-8.56 -229.66c-14.82,0 -26.81,5.03 -36.07,15.08 -9.17,10.06 -15.08,24.43 -17.64,43.13l103.81 0 0 -6c-0.35,-16.58 -4.76,-29.46 -13.41,-38.54 -8.65,-9.09 -20.81,-13.67 -36.69,-13.67zm244.48 224.37l-74.88 0 0 -279.41 74.88 0 0 279.41zm-79.29 -351.55c0,-11.11 3.7,-20.37 11.2,-27.61 7.5,-7.23 17.73,-10.85 30.69,-10.85 12.7,0 22.84,3.61 30.43,10.85 7.58,7.24 11.38,16.49 11.38,27.61 0,11.38 -3.79,20.73 -11.47,27.96 -7.67,7.23 -17.82,10.85 -30.34,10.85 -12.61,0 -22.75,-3.62 -30.43,-10.85 -7.68,-7.23 -11.47,-16.58 -11.47,-27.96zm161.14 351.55l0 -224.37 -41.54 0 0 -55.03 41.54 0 0 -23.81c0,-31.31 8.99,-55.65 27.08,-72.94 17.99,-17.38 43.13,-26.02 75.49,-26.02 10.41,0 23.02,1.68 38.01,5.11l-0.8 57.5c-6.17,-1.5 -13.76,-2.29 -22.66,-2.29 -28.14,0 -42.16,13.23 -42.16,39.78l0 22.66 55.56 0 0 55.03 -55.56 0 0 224.37 -74.96 0zm189.62 0l0 -224.37 -41.54 0 0 -55.03 41.54 0 0 -23.81c0,-31.31 8.99,-55.65 27.08,-72.94 17.99,-17.38 43.13,-26.02 75.49,-26.02 10.41,0 23.02,1.68 38.01,5.11l-0.8 57.5c-6.17,-1.5 -13.76,-2.29 -22.66,-2.29 -28.14,0 -42.16,13.23 -42.16,39.78l0 22.66 55.56 0 0 55.03 -55.56 0 0 224.37 -74.96 0zm292.01 5.29c-41.01,0 -74.44,-12.61 -100.19,-37.75 -25.76,-25.13 -38.63,-58.65 -38.63,-100.54l0 -7.23c0,-28.05 5.47,-53.18 16.32,-75.32 10.85,-22.14 26.2,-39.25 46.13,-51.15 19.93,-12 42.6,-17.99 68.09,-17.99 38.28,0 68.35,12.08 90.32,36.16 21.96,24.16 32.9,58.38 32.9,102.66l0 30.52 -177.98 0c2.38,18.26 9.7,32.81 21.78,43.83 12.17,11.03 27.52,16.49 46.13,16.49 28.84,0 51.24,-10.41 67.47,-31.13l36.69 41.1c-11.2,15.79 -26.37,28.22 -45.51,37.04 -19.05,8.91 -40.3,13.32 -63.5,13.32zm-8.56 -229.66c-14.82,0 -26.81,5.03 -36.07,15.08 -9.17,10.06 -15.08,24.43 -17.64,43.13l103.81 0 0 -6c-0.35,-16.58 -4.76,-29.46 -13.41,-38.54 -8.65,-9.09 -20.81,-13.67 -36.69,-13.67zm322.89 14.73c-10.15,-1.32 -19.05,-2.03 -26.81,-2.03 -28.31,0 -46.83,9.53 -55.56,28.66l0 183.01 -74.7 0 0 -279.41 70.56 0 2.03 33.16c14.99,-25.67 35.81,-38.45 62.27,-38.45 8.29,0 16.05,1.15 23.28,3.35l-1.06 71.7z"/>
  </g>
 </g>
</svg>
