<svg width="48" height="48" viewBox="0 0 48 48" fill="none" xmlns="http://www.w3.org/2000/svg">
<path d="M18.2881 5.72839C18.2881 17.9188 18.2881 30.1092 18.2881 42.2733C18.2881 45.2684 20.9154 48.1321 23.9893 47.9745C27.0895 47.8431 29.6904 45.4523 29.6904 42.2733C29.6904 30.0829 29.6904 17.8925 29.6904 5.72839C29.6904 2.73334 27.0632 -0.130357 23.9893 0.0272777C20.8891 0.15864 18.2881 2.52316 18.2881 5.72839Z" fill="#58C9AD"/>
<path d="M5.72843 29.7156C17.9189 29.7156 30.1094 29.7156 42.2736 29.7156C45.2687 29.7156 48.1324 27.0883 47.9747 24.0145C47.8434 20.9143 45.4788 18.3134 42.2736 18.3134C30.0831 18.3134 17.8926 18.3134 5.72843 18.3134C2.73335 18.3134 -0.130358 20.9406 0.0272778 24.0145C0.158641 27.1146 2.54945 29.7156 5.72843 29.7156Z" fill="#58C9AD"/>
</svg>
