<svg width="150" height="45" viewBox="0 0 150 45" fill="none" xmlns="http://www.w3.org/2000/svg">
<path d="M14.6424 37.1263C14.6424 41.1769 11.3581 44.4475 7.3212 44.4475C3.27059 44.4475 0 41.1632 0 37.1263C0 33.0757 3.28428 29.8051 7.3212 29.8051C11.3718 29.8051 14.6424 33.0894 14.6424 37.1263Z" fill="#FFE138"/>
<path d="M41.1665 29.7918C37.1159 29.7918 33.8453 33.0761 33.8453 37.113C33.8453 41.1637 37.1296 44.4342 41.1665 44.4342C45.2172 44.4342 48.4877 41.15 48.4877 37.113C48.4877 33.0624 45.2035 29.7918 41.1665 29.7918Z" fill="#FFE138"/>
<path d="M74.9899 29.7918C70.9393 29.7918 67.6687 33.0761 67.6687 37.113C67.6687 41.1637 70.953 44.4342 74.9899 44.4342C79.0405 44.4342 82.3111 41.15 82.3111 37.113C82.3111 33.0624 79.0268 29.7918 74.9899 29.7918Z" fill="#FFE138"/>
<path d="M108.835 29.7918C104.785 29.7918 101.514 33.0761 101.514 37.113C101.514 41.1637 104.798 44.4342 108.835 44.4342C112.886 44.4342 116.157 41.15 116.157 37.113C116.157 33.0624 112.872 29.7918 108.835 29.7918Z" fill="#FFE138"/>
<path d="M142.679 29.7918C138.628 29.7918 135.358 33.0761 135.358 37.113C135.358 41.1637 138.642 44.4342 142.679 44.4342C146.729 44.4342 150 41.15 150 37.113C150 33.0624 146.716 29.7918 142.679 29.7918Z" fill="#FFE138"/>
<path d="M32.8999 7.3212C32.8999 11.3718 29.6156 14.6424 25.5787 14.6424C21.5281 14.6424 18.2575 11.3581 18.2575 7.3212C18.2575 3.27059 21.5418 0 25.5787 0C29.6293 0 32.8999 3.28428 32.8999 7.3212Z" fill="#FFE138"/>
<path d="M59.4167 0C55.3661 0 52.0955 3.28428 52.0955 7.3212C52.0955 11.3718 55.3798 14.6424 59.4167 14.6424C63.4673 14.6424 66.7379 11.3581 66.7379 7.3212C66.7379 3.27059 63.4536 0 59.4167 0Z" fill="#FFE138"/>
<path d="M93.2475 0C89.1969 0 85.9263 3.28428 85.9263 7.3212C85.9263 11.3718 89.2105 14.6424 93.2475 14.6424C97.2981 14.6424 100.569 11.3581 100.569 7.3212C100.569 3.27059 97.2844 0 93.2475 0Z" fill="#FFE138"/>
<path d="M127.093 0C123.042 0 119.772 3.28428 119.772 7.3212C119.772 11.3718 123.056 14.6424 127.093 14.6424C131.143 14.6424 134.414 11.3581 134.414 7.3212C134.414 3.27059 131.13 0 127.093 0Z" fill="#FFE138"/>
</svg>
